<svg xmlns="http://www.w3.org/2000/svg" viewBox="0 0 400 300" width="400" height="300" preserveAspectRatio="xMidYMid slice"><defs><linearGradient id="g_tablaloops" x1="0" y1="0" x2="1" y2="1"><stop offset="0%" stop-color="#1f1a0a"/><stop offset="45%" stop-color="#4a3510"/><stop offset="100%" stop-color="#0a0e14"/></linearGradient></defs><rect width="400" height="300" fill="url(#g_tablaloops)"/><g transform="scale(2,2)" fill="none"><line x1="20" y1="75" x2="35" y2="75" stroke="rgba(255,255,255,0.5)" stroke-width="2" stroke-linecap="round"/><line x1="42" y1="60" x2="42" y2="90" stroke="rgba(255,255,255,0.5)" stroke-width="2" stroke-linecap="round"/><line x1="50" y1="50" x2="50" y2="100" stroke="rgba(187,214,122,0.6)" stroke-width="2" stroke-linecap="round"/><line x1="58" y1="65" x2="58" y2="85" stroke="rgba(255,255,255,0.5)" stroke-width="2" stroke-linecap="round"/><line x1="66" y1="40" x2="66" y2="110" stroke="rgba(187,214,122,0.6)" stroke-width="2" stroke-linecap="round"/><line x1="74" y1="55" x2="74" y2="95" stroke="rgba(255,255,255,0.5)" stroke-width="2" stroke-linecap="round"/><line x1="82" y1="30" x2="82" y2="120" stroke="rgba(187,214,122,0.6)" stroke-width="2" stroke-linecap="round"/><line x1="90" y1="60" x2="90" y2="90" stroke="rgba(255,255,255,0.5)" stroke-width="2" stroke-linecap="round"/><line x1="98" y1="50" x2="98" y2="100" stroke="rgba(187,214,122,0.6)" stroke-width="2" stroke-linecap="round"/><line x1="106" y1="65" x2="106" y2="85" stroke="rgba(255,255,255,0.5)" stroke-width="2" stroke-linecap="round"/><line x1="114" y1="35" x2="114" y2="115" stroke="rgba(187,214,122,0.6)" stroke-width="2" stroke-linecap="round"/><line x1="122" y1="55" x2="122" y2="95" stroke="rgba(255,255,255,0.5)" stroke-width="2" stroke-linecap="round"/><line x1="130" y1="45" x2="130" y2="105" stroke="rgba(187,214,122,0.6)" stroke-width="2" stroke-linecap="round"/><line x1="138" y1="60" x2="138" y2="90" stroke="rgba(255,255,255,0.5)" stroke-width="2" stroke-linecap="round"/><line x1="146" y1="50" x2="146" y2="100" stroke="rgba(187,214,122,0.6)" stroke-width="2" stroke-linecap="round"/><line x1="154" y1="65" x2="154" y2="85" stroke="rgba(255,255,255,0.5)" stroke-width="2" stroke-linecap="round"/><line x1="165" y1="75" x2="180" y2="75" stroke="rgba(255,255,255,0.5)" stroke-width="2" stroke-linecap="round"/></g></svg>