<svg xmlns="http://www.w3.org/2000/svg" viewBox="0 0 200 200" width="200" height="200" preserveAspectRatio="xMidYMid meet">
                <defs>
  <linearGradient id="ig9" x1="0%" y1="0%" x2="100%" y2="100%">
    <stop offset="0%" stop-color="#BBD67A" stop-opacity="0.95"/>
    <stop offset="100%" stop-color="#75C249" stop-opacity="0.85"/>
  </linearGradient>
  <linearGradient id="ig9b" x1="0%" y1="0%" x2="100%" y2="100%">
    <stop offset="0%" stop-color="#BBD67A" stop-opacity="0.18"/>
    <stop offset="100%" stop-color="#75C249" stop-opacity="0.06"/>
  </linearGradient>
</defs>
                
    <!-- Algoza: twin flutes, side by side -->
    <rect x="30" y="50" width="14" height="130" rx="6" fill="url(#ig9b)" stroke="url(#ig9)" stroke-width="1.6"/>
    <rect x="156" y="50" width="14" height="130" rx="6" fill="url(#ig9b)" stroke="url(#ig9)" stroke-width="1.6"/>
    <ellipse cx="37" cy="48" rx="9" ry="5" fill="url(#ig9b)" stroke="url(#ig9)" stroke-width="1.4"/>
    <ellipse cx="163" cy="48" rx="9" ry="5" fill="url(#ig9b)" stroke="url(#ig9)" stroke-width="1.4"/>
    <circle cx="37" cy="80" r="2.5" fill="url(#ig9)"/>
    <circle cx="37" cy="100" r="2.5" fill="url(#ig9)"/>
    <circle cx="37" cy="120" r="2.5" fill="url(#ig9)"/>
    <circle cx="37" cy="140" r="2.5" fill="url(#ig9)"/>
    <circle cx="37" cy="160" r="2.5" fill="url(#ig9)"/>
    <circle cx="163" cy="80" r="2.5" fill="url(#ig9)"/>
    <circle cx="163" cy="100" r="2.5" fill="url(#ig9)"/>
    <circle cx="163" cy="120" r="2.5" fill="url(#ig9)"/>
    <circle cx="163" cy="140" r="2.5" fill="url(#ig9)"/>
    <circle cx="163" cy="160" r="2.5" fill="url(#ig9)"/>
    <path d="M44 90 Q100 110 156 90" fill="none" stroke="url(#ig9)" stroke-width="0.8" opacity="0.4"/>
  
              </svg>