<svg xmlns="http://www.w3.org/2000/svg" viewBox="0 0 200 200" width="200" height="200" preserveAspectRatio="xMidYMid meet">
                <defs>
  <linearGradient id="ig15" x1="0%" y1="0%" x2="100%" y2="100%">
    <stop offset="0%" stop-color="#BBD67A" stop-opacity="0.95"/>
    <stop offset="100%" stop-color="#75C249" stop-opacity="0.85"/>
  </linearGradient>
  <linearGradient id="ig15b" x1="0%" y1="0%" x2="100%" y2="100%">
    <stop offset="0%" stop-color="#BBD67A" stop-opacity="0.18"/>
    <stop offset="100%" stop-color="#75C249" stop-opacity="0.06"/>
  </linearGradient>
</defs>
                
    <!-- Folk Vocals: layered voice waveforms (no mic) — communal/folk vibe -->
    <path d="M20 100 Q40 70 60 100 Q80 130 100 100 Q120 70 140 100 Q160 130 180 100" fill="none" stroke="url(#ig15)" stroke-width="2"/>
    <path d="M20 75 Q40 55 60 75 Q80 95 100 75 Q120 55 140 75 Q160 95 180 75" fill="none" stroke="url(#ig15)" stroke-width="1.4" opacity="0.6"/>
    <path d="M20 125 Q40 105 60 125 Q80 145 100 125 Q120 105 140 125 Q160 145 180 125" fill="none" stroke="url(#ig15)" stroke-width="1.4" opacity="0.6"/>
    <path d="M20 50 Q40 38 60 50 Q80 62 100 50 Q120 38 140 50 Q160 62 180 50" fill="none" stroke="url(#ig15)" stroke-width="1" opacity="0.35"/>
    <path d="M20 150 Q40 138 60 150 Q80 162 100 150 Q120 138 140 150 Q160 162 180 150" fill="none" stroke="url(#ig15)" stroke-width="1" opacity="0.35"/>
    <circle cx="100" cy="100" r="4" fill="url(#ig15)"/>
  
              </svg>