<svg width="1374" height="191" viewBox="0 0 1374 191" fill="none" xmlns="http://www.w3.org/2000/svg">
<path d="M72.4266 151.696C57.8123 151.696 45.0687 148.714 34.1957 142.752C23.3227 136.672 14.9049 128.137 8.94233 117.148C2.97972 106.041 -0.00158033 93.0633 -0.00158033 78.2152C-0.00158033 63.2502 2.97972 50.2728 8.94233 39.2829C14.9049 28.293 23.3227 19.8167 34.1957 13.8541C45.0687 7.77462 57.8123 4.73486 72.4266 4.73486C84.3518 4.73486 94.9325 6.83931 104.169 11.0482C113.405 15.1402 120.946 21.0443 126.791 28.7607C132.637 36.477 136.32 45.7132 137.84 56.4692H103.467C102.298 49.3375 98.9076 43.7841 93.2957 39.809C87.8007 35.8339 80.8444 33.8464 72.4266 33.8464C60.2675 33.8464 50.6221 37.763 43.4904 45.5963C36.4755 53.4295 32.9681 64.3025 32.9681 78.2152C32.9681 92.128 36.4755 103.001 43.4904 110.834C50.6221 118.667 60.2675 122.584 72.4266 122.584C80.8444 122.584 87.8007 120.596 93.2957 116.621C98.9076 112.646 102.298 107.093 103.467 99.9612H137.84C136.32 110.6 132.637 119.837 126.791 127.67C120.946 135.386 113.405 141.349 104.169 145.558C94.9325 149.65 84.3518 151.696 72.4266 151.696ZM160.328 148.89V75.2339H144.545V43.6672H176.813V64.7117H184.179C186.868 57.1123 191.252 51.5004 197.332 47.8761C203.411 44.1348 210.192 42.2642 217.675 42.2642H226.619V70.3235H216.272C207.62 70.3235 201.365 72.7203 197.507 77.5137C193.766 82.3072 191.895 88.5621 191.895 96.2784V148.89H160.328ZM247.016 190.979V165.024H269.464L276.654 147.662L231.935 43.6672H266.132L293.49 110.834H294.191L321.023 43.6672H354.343L309.098 148.89L301.206 167.654C298.049 175.137 294.25 180.866 289.807 184.841C285.481 188.933 279.051 190.979 270.516 190.979H247.016ZM374.714 190.979V75.2339H358.93V43.6672H391.199V61.2042H398.564C402.305 55.0078 407.333 50.2143 413.646 46.8238C420.076 43.3164 427.734 41.5627 436.62 41.5627C447.726 41.5627 457.021 43.901 464.504 48.5776C471.986 53.1372 477.656 59.509 481.515 67.693C485.373 75.8769 487.302 85.4054 487.302 96.2784C487.302 107.151 485.431 116.738 481.69 125.039C477.949 133.223 472.512 139.595 465.38 144.155C458.249 148.714 449.597 150.994 439.426 150.994C431.943 150.994 425.513 149.65 420.135 146.961C414.874 144.155 410.723 140.296 407.683 135.386H406.982V190.979H374.714ZM430.482 122.935C438.783 122.935 444.921 120.538 448.896 115.745C452.988 110.951 455.034 104.462 455.034 96.2784C455.034 88.0944 452.988 81.6057 448.896 76.8123C444.921 72.0188 438.783 69.6221 430.482 69.6221C423.233 69.6221 417.504 71.668 413.295 75.76C409.086 79.7351 406.982 85.2885 406.982 92.4203V100.137C406.982 107.268 409.086 112.88 413.295 116.972C417.504 120.947 423.233 122.935 430.482 122.935ZM538.768 148.89C530.584 148.89 524.212 146.844 519.652 142.752C515.209 138.543 512.988 132.171 512.988 123.636V68.9206H495.451V43.6672H513.339V12.1004H544.906V43.6672H568.055V68.9206H545.256V123.636H570.51V148.89H538.768ZM637.137 150.994C625.562 150.994 615.449 148.773 606.798 144.33C598.146 139.77 591.424 133.399 586.63 125.215C581.954 116.914 579.615 107.21 579.615 96.103C579.615 84.9962 581.954 75.3508 586.63 67.1669C591.424 58.9829 598.146 52.6695 606.798 48.2268C615.449 43.7841 625.621 41.5627 637.312 41.5627C649.004 41.5627 659.058 43.7841 667.476 48.2268C676.011 52.6695 682.616 58.9829 687.293 67.1669C691.97 75.3508 694.308 85.0547 694.308 96.2784C694.308 107.385 691.97 117.089 687.293 125.39C682.616 133.574 676.011 139.887 667.476 144.33C658.941 148.773 648.828 150.994 637.137 150.994ZM637.137 122.935C645.204 122.935 651.342 120.538 655.551 115.745C659.877 110.834 662.04 104.287 662.04 96.103C662.04 87.9191 659.877 81.4888 655.551 76.8123C651.342 72.0188 645.204 69.6221 637.137 69.6221C628.953 69.6221 622.698 72.0188 618.372 76.8123C614.046 81.4888 611.884 87.9191 611.884 96.103C611.884 104.287 614.046 110.834 618.372 115.745C622.698 120.538 628.953 122.935 637.137 122.935ZM779.39 151.696C764.776 151.696 752.032 148.714 741.159 142.752C730.286 136.672 721.868 128.137 715.906 117.148C709.943 106.041 706.962 93.0633 706.962 78.2152C706.962 63.2502 709.943 50.2728 715.906 39.2829C721.868 28.293 730.286 19.8167 741.159 13.8541C752.032 7.77462 764.776 4.73486 779.39 4.73486C791.315 4.73486 801.896 6.83931 811.132 11.0482C820.368 15.1402 827.909 21.0443 833.755 28.7607C839.601 36.477 843.283 45.7132 844.803 56.4692H810.431C809.262 49.3375 805.871 43.7841 800.259 39.809C794.764 35.8339 787.808 33.8464 779.39 33.8464C767.231 33.8464 757.586 37.763 750.454 45.5963C743.439 53.4295 739.932 64.3025 739.932 78.2152C739.932 92.128 743.439 103.001 750.454 110.834C757.586 118.667 767.231 122.584 779.39 122.584C787.808 122.584 794.764 120.596 800.259 116.621C805.871 112.646 809.262 107.093 810.431 99.9612H844.803C843.283 110.6 839.601 119.837 833.755 127.67C827.909 135.386 820.368 141.349 811.132 145.558C801.896 149.65 791.315 151.696 779.39 151.696ZM857.647 148.89V43.6672H889.915V148.89H857.647ZM873.781 34.7233C868.987 34.7233 864.895 33.028 861.505 29.6375C858.114 26.247 856.419 22.155 856.419 17.3616C856.419 12.5681 858.114 8.4761 861.505 5.0856C864.895 1.69509 868.987 -0.000159592 873.781 -0.000159592C878.574 -0.000159592 882.666 1.69509 886.057 5.0856C889.447 8.4761 891.142 12.5681 891.142 17.3616C891.142 22.155 889.447 26.247 886.057 29.6375C882.666 33.028 878.574 34.7233 873.781 34.7233ZM920.35 190.979V75.2339H904.566V43.6672H936.835V61.2042H944.2C947.941 55.0078 952.969 50.2143 959.282 46.8238C965.712 43.3164 973.37 41.5627 982.256 41.5627C993.363 41.5627 1002.66 43.901 1010.14 48.5776C1017.62 53.1372 1023.29 59.509 1027.15 67.693C1031.01 75.8769 1032.94 85.4054 1032.94 96.2784C1032.94 107.151 1031.07 116.738 1027.33 125.039C1023.58 133.223 1018.15 139.595 1011.02 144.155C1003.88 148.714 995.233 150.994 985.062 150.994C977.579 150.994 971.149 149.65 965.771 146.961C960.51 144.155 956.359 140.296 953.32 135.386H952.618V190.979H920.35ZM976.118 122.935C984.419 122.935 990.557 120.538 994.532 115.745C998.624 110.951 1000.67 104.462 1000.67 96.2784C1000.67 88.0944 998.624 81.6057 994.532 76.8123C990.557 72.0188 984.419 69.6221 976.118 69.6221C968.869 69.6221 963.14 71.668 958.931 75.76C954.722 79.7351 952.618 85.2885 952.618 92.4203V100.137C952.618 107.268 954.722 112.88 958.931 116.972C963.14 120.947 968.869 122.935 976.118 122.935ZM1048.45 148.89V1.57819H1080.72V58.0476H1081.42C1084.81 52.6695 1089.26 48.636 1094.75 45.947C1100.36 43.1411 1107.08 41.7381 1114.92 41.7381C1128.13 41.7381 1138.59 45.7716 1146.31 53.8387C1154.03 61.9057 1157.88 72.7203 1157.88 86.2823V148.89H1125.62V92.5956C1125.62 85.347 1123.69 79.852 1119.83 76.1108C1116.09 72.3695 1110.53 70.4989 1103.17 70.4989C1095.8 70.4989 1090.19 72.3695 1086.33 76.1108C1082.59 79.852 1080.72 85.347 1080.72 92.5956V148.89H1048.45ZM1229.34 150.994C1217.76 150.994 1207.71 148.773 1199.18 144.33C1190.64 139.77 1184.04 133.399 1179.36 125.215C1174.8 116.914 1172.52 107.151 1172.52 95.9277C1172.52 84.7039 1174.74 75.0585 1179.18 66.9915C1183.74 58.8075 1190.17 52.5526 1198.47 48.2268C1206.89 43.7841 1216.77 41.5627 1228.11 41.5627C1239.34 41.5627 1248.98 43.7256 1257.05 48.0514C1265.12 52.2603 1271.25 58.3399 1275.46 66.29C1279.79 74.2401 1281.95 83.7686 1281.95 94.8754V105.222H1203.56C1204.85 112.003 1207.65 117.148 1211.98 120.655C1216.3 124.045 1222.03 125.741 1229.16 125.741C1234.89 125.741 1239.34 124.864 1242.49 123.11C1245.77 121.24 1248.1 118.317 1249.51 114.342H1281.78C1279.55 125.799 1273.83 134.802 1264.59 141.349C1255.35 147.779 1243.6 150.994 1229.34 150.994ZM1204.09 84.1778H1251.09C1250.03 78.3321 1247.58 74.0063 1243.72 71.2004C1239.98 68.2775 1234.83 66.8161 1228.29 66.8161C1221.86 66.8161 1216.6 68.2775 1212.5 71.2004C1208.41 74.1232 1205.61 78.449 1204.09 84.1778ZM1307.5 148.89V75.2339H1291.72V43.6672H1323.98V64.7117H1331.35C1334.04 57.1123 1338.42 51.5004 1344.5 47.8761C1350.58 44.1348 1357.36 42.2642 1364.85 42.2642H1373.79V70.3235H1363.44C1354.79 70.3235 1348.54 72.7203 1344.68 77.5137C1340.94 82.3072 1339.07 88.5621 1339.07 96.2784V148.89H1307.5Z" fill="white"/>
</svg>
